<?xml version="1.0" encoding="UTF-8"?>
<svg width="512" height="512" viewBox="0 0 512 512" fill="none" xmlns="http://www.w3.org/2000/svg">
  <!-- Background circle with gradient -->
  <circle cx="256" cy="256" r="240" fill="url(#gradient)"/>
  
  <!-- Heart shape for "cute" -->
  <path d="M256 180c-20-30-50-40-80-20s-40 50-20 80c15 25 35 35 50 60c15-25 35-35 50-60c20-30-0-60-20-80c-30-20-60-10-80 20z" fill="white"/>
  
  <!-- Meeting icon (two people) -->
  <circle cx="180" cy="220" r="25" fill="white" opacity="0.9"/>
  <circle cx="332" cy="220" r="25" fill="white" opacity="0.9"/>
  <rect x="170" y="245" width="20" height="40" rx="10" fill="white" opacity="0.8"/>
  <rect x="322" y="245" width="20" height="40" rx="10" fill="white" opacity="0.8"/>
  
  <!-- Meeting table/connection line -->
  <rect x="200" y="280" width="112" height="8" rx="4" fill="white" opacity="0.7"/>
  
  <defs>
    <linearGradient id="gradient" x1="0%" y1="0%" x2="100%" y2="100%">
      <stop offset="0%" style="stop-color:#14b8a6;stop-opacity:1" />
      <stop offset="100%" style="stop-color:#1e1b4b;stop-opacity:1" />
    </linearGradient>
  </defs>
</svg>